<svg xmlns="http://www.w3.org/2000/svg" viewBox="0 0 600 600">
<defs><linearGradient id="g" x1="0" y1="0" x2="1" y2="1">
<stop offset="0" stop-color="#F1D7C6"/><stop offset="1" stop-color="#EDE0D4"/></linearGradient></defs>
<rect width="600" height="600" fill="url(#g)"/>
<circle cx="300" cy="280" r="150" fill="#FFFFFF" opacity="0.45"/>
<g transform="translate(300,280) scale(1.5)" fill="none" stroke="#4E3629" stroke-width="4" stroke-linecap="round" stroke-linejoin="round" opacity="0.85"><path d="M-40,-10 a40,40 0 0 1 80,0 M-40,-10 v25 a8,8 0 0 1 -16,0 v-10 a8,8 0 0 1 16,-2 M40,-10 v25 a8,8 0 0 0 16,0 v-10 a8,8 0 0 0 -16,-2"/></g>
<text x="300" y="505" text-anchor="middle" font-family="Georgia, 'Times New Roman', serif" font-style="italic" font-size="34" fill="#4E3629">Auriculares Pro</text>
<text x="300" y="555" text-anchor="middle" font-family="Georgia, serif" font-style="italic" font-size="22" fill="#B08D57" letter-spacing="4">Ribboun</text>
</svg>