<svg xmlns="http://www.w3.org/2000/svg" viewBox="0 0 600 600">
<defs><linearGradient id="g" x1="0" y1="0" x2="1" y2="1">
<stop offset="0" stop-color="#F6E3D7"/><stop offset="1" stop-color="#F1D7C6"/></linearGradient></defs>
<rect width="600" height="600" fill="url(#g)"/>
<circle cx="300" cy="280" r="150" fill="#FFFFFF" opacity="0.45"/>
<g transform="translate(300,280) scale(1.5)" fill="none" stroke="#4E3629" stroke-width="4" stroke-linecap="round" stroke-linejoin="round" opacity="0.85"><path d="M-35,-35 h70 a14,14 0 0 1 14,14 v42 a14,14 0 0 1 -14,14 h-70 a14,14 0 0 1 -14,-14 v-42 a14,14 0 0 1 14,-14 z M-18,0 a16,16 0 1 0 32,0 a16,16 0 1 0 -32,0 M22,-22 a5,5 0 1 0 10,0 a5,5 0 1 0 -10,0"/></g>
<text x="300" y="505" text-anchor="middle" font-family="Georgia, 'Times New Roman', serif" font-style="italic" font-size="34" fill="#4E3629">Protector Cámara</text>
<text x="300" y="555" text-anchor="middle" font-family="Georgia, serif" font-style="italic" font-size="22" fill="#B08D57" letter-spacing="4">Ribboun</text>
</svg>